<svg fill="none" height="512" viewBox="0 0 512 512" width="512" xmlns="http://www.w3.org/2000/svg"><g clip-rule="evenodd" fill="#000" fill-rule="evenodd"><path d="m380.473 124.842c0 68.948-55.894 124.842-124.842 124.842s-124.842-55.894-124.842-124.842c0-68.9484 55.894-124.842 124.842-124.842s124.842 55.8936 124.842 124.842z"/><path d="m461.258 512c27.614 0 50.62-22.769 43.333-49.405-10.744-39.275-34.185-75.577-68.205-104.553-47.94-40.833-112.96-63.772-180.757-63.772-67.796 0-132.817 22.939-180.7562 63.772-34.0199 28.976-57.4607 65.278-68.20505 104.553-7.286605 26.636 15.71895 49.405 43.33315 49.405z"/></g></svg>