<svg fill="none" height="512" viewBox="0 0 512 512" width="512" xmlns="http://www.w3.org/2000/svg" xmlns:xlink="http://www.w3.org/1999/xlink"><clipPath id="clip0_260_8262"><path d="m0 0h512v512h-512z"/></clipPath><g clip-path="url(#clip0_260_8262)" clip-rule="evenodd" fill="#000" fill-rule="evenodd"><path d="m62 0c-34.2417 0-62 27.7583-62 62s27.7583 62 62 62h388c34.242 0 62-27.7583 62-62s-27.758-62-62-62z"/><path d="m62 194c-34.2417 0-62 27.758-62 62s27.7583 62 62 62h388c34.242 0 62-27.758 62-62s-27.758-62-62-62z"/><path d="m159 450c0-34.242 27.758-62 62-62h229c34.242 0 62 27.758 62 62s-27.758 62-62 62h-229c-34.242 0-62-27.758-62-62z"/></g></svg>