<?xml version="1.0" encoding="UTF-8" standalone="no"?>
<svg
   id="Capa_1"
   enable-background="new 0 0 24 24"
   height="512"
   viewBox="0 0 24 24"
   width="512"
   version="1.1"
   sodipodi:docname="Icon_add.svg"
   inkscape:version="1.3.2 (091e20e, 2023-11-25, custom)"
   xmlns:inkscape="http://www.inkscape.org/namespaces/inkscape"
   xmlns:sodipodi="http://sodipodi.sourceforge.net/DTD/sodipodi-0.dtd"
   xmlns="http://www.w3.org/2000/svg"
   xmlns:svg="http://www.w3.org/2000/svg">
  <defs
     id="defs3" />
  <sodipodi:namedview
     id="namedview3"
     pagecolor="#ffffff"
     bordercolor="#000000"
     borderopacity="0.25"
     inkscape:showpageshadow="2"
     inkscape:pageopacity="0.0"
     inkscape:pagecheckerboard="0"
     inkscape:deskcolor="#d1d1d1"
     inkscape:zoom="1.5878906"
     inkscape:cx="255.68512"
     inkscape:cy="256"
     inkscape:window-width="1920"
     inkscape:window-height="1009"
     inkscape:window-x="2552"
     inkscape:window-y="349"
     inkscape:window-maximized="1"
     inkscape:current-layer="Capa_1" />
  <g
     id="g3">
    <g
       id="_x33_">
      <path
         d="m18 2c2.206 0 4 1.794 4 4v12c0 2.206-1.794 4-4 4h-12c-2.206 0-4-1.794-4-4v-12c0-2.206 1.794-4 4-4zm0-2h-12c-3.314 0-6 2.686-6 6v12c0 3.314 2.686 6 6 6h12c3.314 0 6-2.686 6-6v-12c0-3.314-2.686-6-6-6z"
         id="path1" />
    </g>
    <g
       id="_x32_">
      <path
         d="m12 18c-.552 0-1-.447-1-1v-10c0-.552.448-1 1-1s1 .448 1 1v10c0 .553-.448 1-1 1z"
         id="path2" />
    </g>
    <g
       id="_x31_">
      <path
         d="m6 12c0-.552.447-1 1-1h10c.552 0 1 .448 1 1s-.448 1-1 1h-10c-.553 0-1-.448-1-1z"
         id="path3" />
    </g>
  </g>
</svg>
