<svg fill="none" height="512" viewBox="0 0 512 512" width="512" xmlns="http://www.w3.org/2000/svg"><g fill="#000"><path d="m334.735 255.687c0 43.648-35.382 79.032-79.032 79.032-43.649 0-79.031-35.384-79.031-79.032 0-43.647 35.382-79.031 79.031-79.031 43.65 0 79.032 35.384 79.032 79.031z"/><path clip-rule="evenodd" d="m475.128 204.02c-13.801 10.494-16.756 21.224-16.756 51.98s2.955 41.486 16.756 51.98c17.586 13.37 25.327 36.104 14.281 55.236l-23.999 41.569c-11.046 19.132-34.54 23.779-54.763 14.887-15.048-6.617-26.167-4.911-50.388 9.758-28.339 17.164-36.936 24.328-39.506 42.604-3.075 21.876-18.956 39.966-41.048 39.966h-48c-22.091 0-37.972-18.09-41.048-39.966-2.57-18.276-11.166-25.44-39.506-42.604-24.22-14.669-35.34-16.375-50.388-9.758-20.2227 8.892-43.7167 4.245-54.7623-14.887l-23.9998-41.569c-11.0458-19.132-3.3049-41.866 14.2811-55.236 13.8014-10.494 16.7565-21.224 16.7565-51.98s-2.9551-41.486-16.7565-51.98c-17.586-13.37-25.3269-36.104-14.2812-55.236l23.9999-41.569c11.0456-19.1317 34.6422-23.8554 55.0813-15.4724 16.92 6.9394 27.476 3.3454 56.015-12.6361 25.112-14.0625 32.323-22.655 34.218-39.1219 2.526-21.9464 18.299-39.9846 40.39-39.9846h48c22.092 0 37.864 18.0382 40.39 39.9846 1.896 16.4669 9.106 25.0595 34.218 39.1219 28.539 15.9815 39.096 19.5755 56.015 12.6361 20.439-8.383 44.036-3.6593 55.082 15.4724l23.999 41.569c11.046 19.132 3.305 41.866-14.281 55.236zm-219.425 158.699c59.114 0 107.032-47.921 107.032-107.032s-47.918-107.031-107.032-107.031c-59.113 0-107.031 47.92-107.031 107.031s47.918 107.032 107.031 107.032z" fill-rule="evenodd"/></g></svg>