<svg id="Capa_1" enable-background="new 0 0 24 24" height="512" viewBox="0 0 24 24" width="512" xmlns="http://www.w3.org/2000/svg"><g id="_x32_"><path d="m18 2c2.206 0 4 1.794 4 4v12c0 2.206-1.794 4-4 4h-12c-2.206 0-4-1.794-4-4v-12c0-2.206 1.794-4 4-4zm0-2h-12c-3.314 0-6 2.686-6 6v12c0 3.314 2.686 6 6 6h12c3.314 0 6-2.686 6-6v-12c0-3.314-2.686-6-6-6z"/></g><g id="_x31_"><path d="m8 18c0-.256.098-.512.293-.707l5.293-5.293-5.293-5.293c-.391-.391-.391-1.023 0-1.414s1.023-.391 1.414 0l6 6c.391.391.391 1.023 0 1.414l-6 6c-.391.391-1.023.391-1.414 0-.195-.195-.293-.451-.293-.707z"/></g></svg>