<svg fill="none" height="512" viewBox="0 0 512 512" width="512" xmlns="http://www.w3.org/2000/svg" xmlns:xlink="http://www.w3.org/1999/xlink"><clipPath id="clip0_260_8266"><path d="m0 0h512v512h-512z"/></clipPath><g clip-path="url(#clip0_260_8266)"><path clip-rule="evenodd" d="m.188895 244.34c0-13.766 5.673535-26.923 15.683205-36.37l205.9239-194.3397c19.257-18.17374 49.34-18.17374 68.597 0l205.924 194.3397c10.009 9.447 15.683 22.604 15.683 36.37l-.189 217.659c0 27.614-22.377 50-49.981 50h-141.948v-140c0-16.568-13.427-30-29.989-30h-67.975c-16.562 0-29.989 13.432-29.989 30v140h-141.9474c-27.6041 0-49.9816-22.386-49.9816-50z" fill="#000" fill-rule="evenodd"/></g></svg>