<?xml version="1.0" encoding="UTF-8" standalone="no"?>
<!-- Created with Inkscape (http://www.inkscape.org/) -->

<svg
   width="2000"
   height="350"
   viewBox="0 0 529.16665 92.604166"
   version="1.1"
   id="svg1"
   inkscape:version="1.3.2 (091e20e, 2023-11-25, custom)"
   sodipodi:docname="Logo_dark.svg"
   xmlns:inkscape="http://www.inkscape.org/namespaces/inkscape"
   xmlns:sodipodi="http://sodipodi.sourceforge.net/DTD/sodipodi-0.dtd"
   xmlns="http://www.w3.org/2000/svg"
   xmlns:svg="http://www.w3.org/2000/svg">
  <sodipodi:namedview
     id="namedview1"
     pagecolor="#ffffff"
     bordercolor="#000000"
     borderopacity="0.25"
     inkscape:showpageshadow="2"
     inkscape:pageopacity="0.0"
     inkscape:pagecheckerboard="0"
     inkscape:deskcolor="#d1d1d1"
     inkscape:document-units="px"
     inkscape:zoom="0.52248527"
     inkscape:cx="957.92174"
     inkscape:cy="-6.6987534"
     inkscape:window-width="2560"
     inkscape:window-height="1369"
     inkscape:window-x="-8"
     inkscape:window-y="-8"
     inkscape:window-maximized="1"
     inkscape:current-layer="layer1" />
  <defs
     id="defs1" />
  <g
     inkscape:label="Warstwa 1"
     inkscape:groupmode="layer"
     id="layer1">
    <g
       id="g1"
       transform="translate(62.970832,-88.370824)">
      <g
         id="g53"
         transform="matrix(5.1880825,0,0,5.1763465,-266.13932,-190.01848)"
         style="stroke-width:0.192967">
        <path
           id="path45"
           style="font-size:18.4619px;line-height:1.2;font-family:Nasalization;-inkscape-font-specification:'Nasalization, @wght=400';font-variation-settings:'wght' 400;letter-spacing:0px;text-orientation:upright;fill:#263238;fill-opacity:1;stroke-width:0.153168;stroke-linejoin:round;stroke-miterlimit:10;paint-order:fill markers stroke"
           d="m 139.18212,53.781041 v 4.22765 h -4.30207 c -2.60312,0 -4.22765,1.58791 -4.22765,4.87412 0,3.28621 1.62453,4.87413 4.22765,4.87413 h 2.69545 c 2.32618,0 3.58169,-1.36615 3.58169,-4.17236 v -9.80354 z m -4.11707,6.11074 h 4.11707 v 3.6003 c 0,1.66157 -0.60942,2.36316 -2.17868,2.36316 h -1.93839 c -1.68003,0 -2.43706,-0.86779 -2.43706,-2.97243 0,-2.10465 0.75703,-2.99103 2.43706,-2.99103 z" />
        <path
           id="path46"
           style="font-size:18.4619px;line-height:1.2;font-family:Nasalization;-inkscape-font-specification:'Nasalization, @wght=400';font-variation-settings:'wght' 400;letter-spacing:0px;text-orientation:upright;fill:#263238;fill-opacity:1;stroke-width:0.153168;stroke-linejoin:round;stroke-miterlimit:10;paint-order:fill markers stroke"
           d="m 119.09549,58.008691 v 1.88309 h 5.83375 c 1.07079,0 1.49552,0.59078 1.49552,1.34772 v 0.73846 h -4.63383 c -2.40005,0 -3.28662,1.03421 -3.28662,2.80655 0,1.84619 0.96028,2.97243 3.26802,2.97243 h 4.55992 c 1.64311,0 2.01228,-0.55389 2.01228,-1.95699 v -4.57853 c 0,-1.84619 -0.95972,-3.21273 -3.39669,-3.21273 z m 2.73213,5.52008 h 4.59714 v 1.8278 c 0,0.35077 -0.14767,0.49867 -0.53537,0.49867 h -4.09846 c -0.97848,0 -1.36633,-0.46183 -1.36633,-1.18184 0,-0.72001 0.36915,-1.14463 1.40302,-1.14463 z" />
        <path
           id="path47"
           style="font-size:18.4619px;line-height:1.2;font-family:Nasalization;-inkscape-font-specification:'Nasalization, @wght=400';font-variation-settings:'wght' 400;letter-spacing:0px;text-orientation:upright;fill:#263238;fill-opacity:1;stroke-width:0.153168;stroke-linejoin:round;stroke-miterlimit:10;paint-order:fill markers stroke"
           d="m 109.45835,58.008691 c -2.34466,0 -3.58169,1.36615 -3.58169,4.17236 v 9.48986 h 1.95698 v -3.91397 h 4.32015 c 2.58467,0 4.20905,-1.58792 4.20905,-4.87413 0,-3.28622 -1.62438,-4.87413 -4.20905,-4.87413 z m 0.57206,1.88309 h 1.92029 c 1.69849,0 2.43706,0.88638 2.43706,2.99103 0,2.10465 -0.73857,2.97243 -2.43706,2.97243 h -4.11706 v -3.58169 c 0,-1.68003 0.60905,-2.38177 2.19677,-2.38177 z" />
        <path
           style="font-size:18.4619px;line-height:1.2;font-family:Nasalization;-inkscape-font-specification:'Nasalization, @wght=400';font-variation-settings:'wght' 400;letter-spacing:0px;text-orientation:upright;fill:#263238;fill-opacity:1;stroke-width:0.153168;stroke-linejoin:round;stroke-miterlimit:10;paint-order:fill markers stroke"
           d="m 92.860951,53.781101 v 13.97566 h 1.95696 v -7.86477 h 3.43391 c 2.030809,0 2.935449,0.88617 2.935449,2.38158 v 5.48319 h 1.97542 v -5.48319 c 0,-2.67697 -1.62465,-4.2647 -4.910869,-4.2647 h -3.43391 v -4.22777 z"
           id="path48" />
        <path
           style="font-size:18.4619px;line-height:1.2;font-family:Nasalization;-inkscape-font-specification:'Nasalization, @wght=400';font-variation-settings:'wght' 400;letter-spacing:0px;text-orientation:upright;fill:#263238;fill-opacity:1;stroke-width:0.153168;stroke-linejoin:round;stroke-miterlimit:10;paint-order:fill markers stroke"
           d="m 85.513131,58.008871 c -2.60313,0 -4.22778,1.58773 -4.22778,4.87395 0,3.28621 1.62465,4.87394 4.22778,4.87394 h 5.02164 v -1.90158 h -4.83702 c -1.6985,0 -2.43697,-0.86771 -2.43697,-2.97236 0,-2.10466 0.73847,-2.99083 2.43697,-2.99083 h 4.83702 v -1.88312 z"
           id="path49" />
        <path
           style="font-size:18.4619px;line-height:1.2;font-family:Nasalization;-inkscape-font-specification:'Nasalization, @wght=400';font-variation-settings:'wght' 400;letter-spacing:0px;text-orientation:upright;fill:#263238;fill-opacity:1;stroke-width:0.153168;stroke-linejoin:round;stroke-miterlimit:10;paint-order:fill markers stroke"
           d="m 70.060501,58.008871 c -0.97848,0 -1.36618,0.36924 -1.36618,1.51388 v 8.23401 h 1.95696 v -7.58784 c 0,-0.18462 0.0738,-0.27693 0.24001,-0.27693 h 3.19391 c 2.04927,0 2.93544,0.84925 2.93544,2.38158 v 5.48319 h 1.97542 v -5.48319 c 0,-2.69543 -1.60618,-4.2647 -4.91086,-4.2647 z"
           id="path50" />
        <path
           style="font-size:18.4619px;line-height:1.2;font-family:Nasalization;-inkscape-font-specification:'Nasalization, @wght=400';font-variation-settings:'wght' 400;letter-spacing:0px;text-orientation:upright;fill:#263238;fill-opacity:1;stroke-width:0.153168;stroke-linejoin:round;stroke-miterlimit:10;paint-order:fill markers stroke"
           d="m 55.678689,58.008871 v 5.90781 c 0,2.25235 1.440028,3.84008 4.227775,3.84008 h 1.809267 c 2.787747,0 4.227775,-1.58773 4.227775,-3.84008 v -5.90781 h -1.920038 v 5.83396 c 0,1.14464 -0.830785,2.01235 -2.381585,2.01235 H 60.05416 c -1.5508,0 -2.400047,-0.86771 -2.400047,-2.01235 v -5.83396 z"
           id="path51" />
        <path
           style="font-size:18.4619px;line-height:1.2;font-family:Nasalization;-inkscape-font-specification:'Nasalization, @wght=400';font-variation-settings:'wght' 400;letter-spacing:0px;text-orientation:upright;fill:#263238;fill-opacity:1;stroke-width:0.153168;stroke-linejoin:round;stroke-miterlimit:10;paint-order:fill markers stroke"
           d="m 39.160612,55.294971 v 8.16016 c 0,2.49236 1.292333,4.30163 4.597013,4.30163 h 4.966251 v -2.17851 h -4.837018 c -1.956961,0 -2.547742,-0.94155 -2.547742,-2.14158 v -8.1417 z"
           id="path52" />
        <path
           style="font-size:18.4619px;line-height:1.2;font-family:Nasalization;-inkscape-font-specification:'Nasalization, @wght=400';font-variation-settings:'wght' 400;letter-spacing:0px;text-orientation:upright;fill:#34ae79;fill-opacity:1;stroke-width:0.153167;stroke-linejoin:round;stroke-miterlimit:10;paint-order:fill markers stroke"
           d="m 48.770772,57.530921 c 0.307075,0 0.425647,0.14854 0.518985,0.39618 l 1.39747,3.70773 h 2.313261 l -1.507279,-3.96652 c -0.452821,-1.19164 -0.855164,-2.37334 -2.712562,-2.37334 -1.857398,0 -2.215676,0.97854 -2.635287,2.04085 l -1.698107,4.29901 h 2.298838 l 1.461007,-3.70566 c 0.104881,-0.26602 0.256599,-0.39825 0.563674,-0.39825 z"
           id="path53"
           sodipodi:nodetypes="zsccszsccsz" />
      </g>
    </g>
  </g>
</svg>
