<?xml version="1.0" encoding="UTF-8" standalone="no"?>
<!-- Created with Inkscape (http://www.inkscape.org/) -->

<svg
   width="2000"
   height="350"
   viewBox="0 0 529.16665 92.604166"
   version="1.1"
   id="svg1"
   inkscape:version="1.3.2 (091e20e, 2023-11-25, custom)"
   sodipodi:docname="Logo_light.svg"
   inkscape:export-filename="Logo_light.png"
   inkscape:export-xdpi="96"
   inkscape:export-ydpi="96"
   xmlns:inkscape="http://www.inkscape.org/namespaces/inkscape"
   xmlns:sodipodi="http://sodipodi.sourceforge.net/DTD/sodipodi-0.dtd"
   xmlns="http://www.w3.org/2000/svg"
   xmlns:svg="http://www.w3.org/2000/svg">
  <sodipodi:namedview
     id="namedview1"
     pagecolor="#ffffff"
     bordercolor="#000000"
     borderopacity="0.25"
     inkscape:showpageshadow="2"
     inkscape:pageopacity="0.0"
     inkscape:pagecheckerboard="0"
     inkscape:deskcolor="#d1d1d1"
     inkscape:document-units="px"
     inkscape:zoom="0.52248527"
     inkscape:cx="957.92174"
     inkscape:cy="-6.6987534"
     inkscape:window-width="2560"
     inkscape:window-height="1369"
     inkscape:window-x="-8"
     inkscape:window-y="-8"
     inkscape:window-maximized="1"
     inkscape:current-layer="layer1" />
  <defs
     id="defs1" />
  <g
     inkscape:label="Warstwa 1"
     inkscape:groupmode="layer"
     id="layer1">
    <g
       id="g1"
       style="fill:#f5f0e8;fill-opacity:1">
      <path
         id="path45"
         style="font-size:18.4619px;line-height:1.2;font-family:Nasalization;-inkscape-font-specification:'Nasalization, @wght=400';font-variation-settings:'wght' 400;letter-spacing:0px;text-orientation:upright;fill:#f5f0e8;fill-opacity:1;stroke-width:0.793749;stroke-linejoin:round;stroke-miterlimit:10;paint-order:fill markers stroke"
         d="M 518.91983,3.3467065e-6 V 21.883785 h -22.31949 c -13.5052,0 -21.9334,8.219572 -21.9334,25.230134 0,17.010561 8.4282,25.230185 21.9334,25.230185 h 13.98421 c 12.06842,0 18.58211,-7.071665 18.58211,-21.597581 V 3.3467065e-6 Z M 497.56013,31.631311 h 21.3597 v 18.6364 c 0,8.600862 -3.16172,12.232535 -11.30317,12.232535 h -10.05653 c -8.71613,0 -12.64367,-4.491981 -12.64367,-15.386327 0,-10.894398 3.92754,-15.482608 12.64367,-15.482608 z" />
      <path
         id="path46"
         style="font-size:18.4619px;line-height:1.2;font-family:Nasalization;-inkscape-font-specification:'Nasalization, @wght=400';font-variation-settings:'wght' 400;letter-spacing:0px;text-orientation:upright;fill:#f5f0e8;fill-opacity:1;stroke-width:0.793749;stroke-linejoin:round;stroke-miterlimit:10;paint-order:fill markers stroke"
         d="m 414.70874,21.883785 v 9.747526 h 30.26597 c 5.55535,0 7.75888,3.058082 7.75888,6.976266 v 3.822524 H 428.6929 c -12.45165,0 -17.05125,5.35343 -17.05125,14.527676 0,9.556519 4.98201,15.386327 16.95475,15.386327 h 23.65725 c 8.52459,0 10.43987,-2.867126 10.43987,-10.130058 V 38.513988 c 0,-9.556519 -4.97911,-16.630203 -17.62231,-16.630203 z m 14.17451,28.573846 h 23.85034 v 9.461327 c 0,1.815707 -0.76612,2.581288 -2.77754,2.581288 H 428.6929 c -5.07643,0 -7.08863,-2.390592 -7.08863,-6.117613 0,-3.727021 1.91518,-5.925002 7.27898,-5.925002 z" />
      <path
         id="path47"
         style="font-size:18.4619px;line-height:1.2;font-family:Nasalization;-inkscape-font-specification:'Nasalization, @wght=400';font-variation-settings:'wght' 400;letter-spacing:0px;text-orientation:upright;fill:#f5f0e8;fill-opacity:1;stroke-width:0.793749;stroke-linejoin:round;stroke-miterlimit:10;paint-order:fill markers stroke"
         d="m 364.71046,21.883785 c -12.16429,0 -18.5821,7.071665 -18.5821,21.597581 v 49.122803 h 10.15297 V 72.344104 h 22.4133 c 13.40948,0 21.83689,-8.219624 21.83689,-25.230185 0,-17.010614 -8.42741,-25.230186 -21.83689,-25.230186 z m 2.96789,9.747526 h 9.96263 c 8.8119,0 12.64367,4.58821 12.64367,15.482608 0,10.894397 -3.83177,15.386327 -12.64367,15.386327 H 356.28133 V 43.960178 c 0,-8.696418 3.1598,-12.328867 11.39702,-12.328867 z" />
      <path
         style="font-size:18.4619px;line-height:1.2;font-family:Nasalization;-inkscape-font-specification:'Nasalization, @wght=400';font-variation-settings:'wght' 400;letter-spacing:0px;text-orientation:upright;fill:#f5f0e8;fill-opacity:1;stroke-width:0.793749;stroke-linejoin:round;stroke-miterlimit:10;paint-order:fill markers stroke"
         d="M 278.60178,3.139275e-4 V 72.343173 h 10.15287 V 31.632398 h 17.81541 c 10.53601,0 15.22935,4.587123 15.22935,12.327883 v 28.382892 h 10.24865 V 43.960281 c 0,-13.856924 -8.42882,-22.075565 -25.478,-22.075565 H 288.75465 V 3.139275e-4 Z"
         id="path48" />
      <path
         style="font-size:18.4619px;line-height:1.2;font-family:Nasalization;-inkscape-font-specification:'Nasalization, @wght=400';font-variation-settings:'wght' 400;letter-spacing:0px;text-orientation:upright;fill:#f5f0e8;fill-opacity:1;stroke-width:0.793749;stroke-linejoin:round;stroke-miterlimit:10;paint-order:fill markers stroke"
         d="m 240.48069,21.884716 c -13.50525,0 -21.93407,8.218641 -21.93407,25.229254 0,17.010562 8.42882,25.229203 21.93407,25.229203 h 26.05268 v -9.843237 h -25.09486 c -8.81196,0 -12.6432,-4.491568 -12.6432,-15.385966 0,-10.894449 3.83124,-15.481572 12.6432,-15.481572 h 25.09486 v -9.747682 z"
         id="path49" />
      <path
         style="font-size:18.4619px;line-height:1.2;font-family:Nasalization;-inkscape-font-specification:'Nasalization, @wght=400';font-variation-settings:'wght' 400;letter-spacing:0px;text-orientation:upright;fill:#f5f0e8;fill-opacity:1;stroke-width:0.793749;stroke-linejoin:round;stroke-miterlimit:10;paint-order:fill markers stroke"
         d="m 160.31117,21.884716 c -5.07644,0 -7.08786,1.911315 -7.08786,7.836368 v 42.622089 h 10.15287 V 33.065884 c 0,-0.955657 0.38289,-1.433486 1.2452,-1.433486 h 16.57026 c 10.63179,0 15.22931,4.396012 15.22931,12.327883 v 28.382892 h 10.24864 V 43.960281 c 0,-13.952479 -8.33299,-22.075565 -25.47795,-22.075565 z"
         id="path50" />
      <path
         style="font-size:18.4619px;line-height:1.2;font-family:Nasalization;-inkscape-font-specification:'Nasalization, @wght=400';font-variation-settings:'wght' 400;letter-spacing:0px;text-orientation:upright;fill:#f5f0e8;fill-opacity:1;stroke-width:0.793749;stroke-linejoin:round;stroke-miterlimit:10;paint-order:fill markers stroke"
         d="m 85.697142,21.884716 v 30.580872 c 0,11.658944 7.470984,19.877585 21.934048,19.877585 h 9.38662 c 14.46307,0 21.93405,-8.218641 21.93405,-19.877585 V 21.884716 h -9.96132 v 30.198599 c 0,5.925053 -4.31018,10.416621 -12.35586,10.416621 h -8.23723 c -8.04568,0 -12.451645,-4.491568 -12.451645,-10.416621 V 21.884716 Z"
         id="path51" />
      <path
         style="font-size:18.4619px;line-height:1.2;font-family:Nasalization;-inkscape-font-specification:'Nasalization, @wght=400';font-variation-settings:'wght' 400;letter-spacing:0px;text-orientation:upright;fill:#f5f0e8;fill-opacity:1;stroke-width:0.793749;stroke-linejoin:round;stroke-miterlimit:10;paint-order:fill markers stroke"
         d="M -4.19351e-6,7.8366296 V 50.076445 C -4.19351e-6,62.977764 6.704726,72.343173 23.849679,72.343173 H 49.614998 V 61.06645 H 24.52015 c -10.152875,0 -13.217896,-4.873789 -13.217896,-11.08556 V 7.8366296 Z"
         id="path52" />
    </g>
    <path
       style="font-size:18.4619px;line-height:1.2;font-family:Nasalization;-inkscape-font-specification:'Nasalization, @wght=400';font-variation-settings:'wght' 400;letter-spacing:0px;text-orientation:upright;fill:#34ae79;fill-opacity:1;stroke-width:0.793744;stroke-linejoin:round;stroke-miterlimit:10;paint-order:fill markers stroke"
       d="m 49.858299,19.410682 c 1.59313,0 2.208291,0.768894 2.692537,2.050765 l 7.250189,19.192495 H 71.802414 L 63.982526,20.12186 C 61.633254,13.953518 59.545865,7.8366296 49.909531,7.8366296 c -9.636334,0 -11.49511,5.0652624 -13.672086,10.5641464 l -8.80992,22.253166 h 11.926562 l 7.579825,-19.18178 c 0.544131,-1.377012 1.331256,-2.06148 2.924387,-2.06148 z"
       id="path53"
       sodipodi:nodetypes="zsccszsccsz" />
  </g>
</svg>
